Coordinates
version=1
nRows=9
nColumns=24
inDegrees=yes

Units are S.I. units (second, meters, Newtons, ...)
Angles are in degrees.

endheader
time	pelvis_tilt	pelvis_list	pelvis_rotation	pelvis_tx	pelvis_ty	pelvis_tz	hip_flexion_r	hip_adduction_r	hip_rotation_r	knee_angle_r	ankle_angle_r	subtalar_angle_r	mtp_angle_r	hip_flexion_l	hip_adduction_l	hip_rotation_l	knee_angle_l	ankle_angle_l	subtalar_angle_l	mtp_angle_l	lumbar_extension	lumbar_bending	lumbar_rotation
      0.46300000	     -3.99002663	      2.38113495	      5.29896616	     -0.75299873	      0.88302966	      0.31378869	     35.28335131	     -2.34121247	     -5.72345260	    -22.68707057	      6.32755287	      2.40329144	      0.72204103	    -13.28600155	      3.99166890	      3.67864473	     -5.94365307	     18.37763886	     -1.94185374	      0.75271230	     -5.53800197	     -3.60895554	     -9.94487685
      0.46716667	     -4.12113345	      2.43096837	      5.36873845	     -0.74738263	      0.88163221	      0.31404055	     35.40215622	     -2.29462096	     -5.32421990	    -22.76536245	      6.28817873	      1.98938877	      1.03322867	    -13.15805562	      3.99888268	      3.74047949	     -6.75129959	     18.68274919	     -1.84071671	      0.95651731	     -5.36922137	     -3.66148432	     -9.97271894
      0.47133333	     -4.22078252	      2.46300172	      5.42371698	     -0.74171138	      0.88028938	      0.31431813	     35.49995841	     -2.22812741	     -4.97156554	    -22.96499131	      6.29080076	      1.64935690	      1.33661440	    -13.04089702	      3.98202112	      3.72678770	     -7.61366358	     19.00991421	     -1.62167051	      1.18960544	     -5.24027623	     -3.66116716	     -9.89960772
      0.47550000	     -4.31510916	      2.48325446	      5.47551829	     -0.73598986	      0.87900267	      0.31461592	     35.58738445	     -2.14593544	     -4.64138736	    -23.24331978	      6.26534795	      1.29876017	      1.62770208	    -12.90516783	      3.95262853	      3.69678183	     -8.52306439	     19.29397434	     -1.41605803	      1.45310718	     -5.11120664	     -3.64728564	     -9.82604006
      0.47966667	     -4.34800254	      2.46851942	      5.49190815	     -0.73019034	      0.87782660	      0.31499837	     35.60159533	     -2.00087915	     -4.31246044	    -23.58090344	      6.23600029	      0.96136166	      2.28927633	    -12.79735305	      3.87011119	      3.46550340	     -9.51943449	     19.66434526	     -0.91806548	      2.15720125	     -5.05286479	     -3.57730881	     -9.72591047
      0.48383333	     -4.46088227	      2.50085759	      5.55970064	     -0.72444071	      0.87662024	      0.31528539	     35.71555013	     -1.94134953	     -4.03159003	    -24.02561128	      6.17043613	      0.61393196	      2.38963399	    -12.62777276	      3.86872707	      3.66780272	    -10.46081466	     19.80699845	     -1.04209181	      2.29532463	     -4.90089743	     -3.57758296	     -9.64798521
      0.48800000	     -4.57461449	      2.52361579	      5.59659310	     -0.71863994	      0.87544706	      0.31565614	     35.83339342	     -1.84691174	     -3.72973852	    -24.53271121	      6.08139929	      0.23642236	      2.49854422	    -12.40956199	      3.85441978	      3.71146217	    -11.49824390	     19.91893971	     -1.01102810	      2.47143249	     -4.73567217	     -3.57470185	     -9.53969142
      0.49216667	     -4.62772876	      2.47997808	      5.60564451	     -0.71275017	      0.87439955	      0.31612159	     35.86761818	     -1.66374445	     -3.46447256	    -25.04924006	      5.94732035	     -0.16338028	      2.95413257	    -12.16359199	      3.73103535	      3.37773262	    -12.72680857	     20.10764479	     -0.44256116	      3.31385717	     -4.62705081	     -3.48005713	     -9.36645454
      0.49633333	     -4.73849686	      2.49440073	      5.64767352	     -0.70690643	      0.87335848	      0.31650098	     35.98199627	     -1.56446616	     -3.20983773	    -25.66177742	      5.84463185	     -0.52374054	      3.03253960	    -11.91356568	      3.71931097	      3.54371122	    -13.83194172	     20.08723419	     -0.60434956	      3.49746837	     -4.46390737	     -3.46369813	     -9.26291443
